<svg width="137" height="38" viewbox="0 0 137 38" fill="none" xmlns="http://www.w3.org/2000/svg">
  <path d="M3.48 37L6.64 25.28H2.18L2.8 23H14.16L13.54 25.28H9.1L5.94 37H3.48ZM20.1633 37.24C18.3099 37.24 16.7966 36.66 15.6233 35.5C14.4633 34.3267 13.8833 32.86 13.8833 31.1C13.8833 29.6867 14.2299 28.3467 14.9233 27.08C15.6299 25.8 16.6233 24.76 17.9033 23.96C19.1966 23.16 20.6233 22.76 22.1833 22.76C24.0366 22.76 25.5499 23.3467 26.7233 24.52C27.8966 25.68 28.4833 27.14 28.4833 28.9C28.4833 30.3133 28.1299 31.66 27.4233 32.94C26.7299 34.2067 25.7366 35.24 24.4433 36.04C23.1499 36.84 21.7233 37.24 20.1633 37.24ZM20.4233 34.98C21.4633 34.98 22.4099 34.6867 23.2633 34.1C24.1299 33.5 24.7899 32.7467 25.2433 31.84C25.6966 30.9333 25.9233 30 25.9233 29.04C25.9233 27.8667 25.5633 26.9067 24.8433 26.16C24.1366 25.4 23.1699 25.02 21.9433 25.02C20.9033 25.02 19.9499 25.32 19.0833 25.92C18.2299 26.5067 17.5766 27.2533 17.1233 28.16C16.6699 29.0667 16.4433 30 16.4433 30.96C16.4433 32.1467 16.7966 33.1133 17.5033 33.86C18.2233 34.6067 19.1966 34.98 20.4233 34.98ZM29.462 37L33.222 23H44.502L40.742 37H38.282L41.462 25.2H35.062L31.902 37H29.462Z" fill="#3F5CD6"></path>
  <path d="M44.3448 37L48.1048 23H59.3848L55.6248 37H53.1648L56.3448 25.2H49.9448L46.7848 37H44.3448ZM59.2277 37L62.9877 23H67.4077C69.0343 23 70.321 23.3467 71.2677 24.04C72.2143 24.7333 72.6877 25.7667 72.6877 27.14C72.6877 28.7933 72.0543 30.0933 70.7877 31.04C69.521 31.9867 67.8743 32.46 65.8477 32.46H62.9277L61.7077 37H59.2277ZM63.5077 30.28H65.9677C67.261 30.28 68.2743 30.02 69.0077 29.5C69.7543 28.98 70.1277 28.26 70.1277 27.34C70.1277 26.6733 69.881 26.16 69.3877 25.8C68.9077 25.4267 68.221 25.24 67.3277 25.24H64.8477L63.5077 30.28ZM80.1242 37.24C78.2709 37.24 76.7576 36.66 75.5842 35.5C74.4242 34.3267 73.8442 32.86 73.8442 31.1C73.8442 29.6867 74.1909 28.3467 74.8842 27.08C75.5909 25.8 76.5842 24.76 77.8642 23.96C79.1576 23.16 80.5842 22.76 82.1442 22.76C83.9976 22.76 85.5109 23.3467 86.6842 24.52C87.8576 25.68 88.4442 27.14 88.4442 28.9C88.4442 30.3133 88.0909 31.66 87.3842 32.94C86.6909 34.2067 85.6976 35.24 84.4042 36.04C83.1109 36.84 81.6842 37.24 80.1242 37.24ZM80.3842 34.98C81.4242 34.98 82.3709 34.6867 83.2242 34.1C84.0909 33.5 84.7509 32.7467 85.2042 31.84C85.6576 30.9333 85.8842 30 85.8842 29.04C85.8842 27.8667 85.5242 26.9067 84.8042 26.16C84.0976 25.4 83.1309 25.02 81.9042 25.02C80.8642 25.02 79.9109 25.32 79.0442 25.92C78.1909 26.5067 77.5376 27.2533 77.0842 28.16C76.6309 29.0667 76.4042 30 76.4042 30.96C76.4042 32.1467 76.7576 33.1133 77.4642 33.86C78.1842 34.6067 79.1576 34.98 80.3842 34.98ZM89.423 37L93.183 23H95.663L93.763 30.08L101.963 23H105.343L98.223 28.98L101.803 37H99.083L96.263 30.44L92.883 33.28L91.903 37H89.423ZM102.496 37L112.436 22.9H114.796L117.176 37H114.656L114.116 33.62H107.496L105.156 37H102.496ZM108.996 31.44H113.816L112.916 25.78L108.996 31.44ZM122.23 37L125.39 25.28H120.93L121.55 23H132.91L132.29 25.28H127.85L124.69 37H122.23Z" fill="white"></path>
  <path d="M45.5 13C26.1218 13.4166 15.5 15.2596 0 19C16.5 16.5 25.8621 15.5685 45.8341 15.2596C52.743 9.90072 56.6749 7.00444 64.3365 3.07694C118.5 3.5 113 17.5 137 16.5C112.5 14 120 0.5 64.3365 1C56.1229 5.11565 53.1529 7.31767 45.5 13Z" fill="#3F5CD6"></path>
  <path d="M86.9176 12.8571L56 15L87.3412 14.1429C89.6825 12.5351 90.6962 11.4004 92 9C90.2481 10.8906 89.1961 11.8379 86.9176 12.8571Z" fill="#3F5CD6"></path>
</svg>